<svg width="194.8" height="194.8" xmlns="http://www.w3.org/2000/svg"><rect style="fill:#133543;fill-opacity:1;stroke-width:.761;stroke-dasharray:none" width="191.695" height="193.356" x="1.661" y="-195.017" transform="scale(1 -1)" ry="95.847"/><g style="display:inline" fill="#fff" stroke="#fff" stroke-width="1.5"><path d="m72.384 91.056-.005.005c-.642.642-1.055 1.672-1.055 2.534 0 1.054.428 1.907 1.055 2.534a3.513 3.513 0 0 0 2.534 1.054 3.512 3.512 0 0 0 2.532-1.052l.002-.002 20.818-20.48 20.992 20.653.001.002c.642.64 1.671 1.052 2.533 1.052a3.513 3.513 0 0 0 2.534-1.054c.642-.642 1.054-1.673 1.054-2.534a3.511 3.511 0 0 0-1.054-2.534l-.002-.002-23.35-23.178-.002-.001c-.642-.641-1.672-1.053-2.533-1.053a3.512 3.512 0 0 0-2.531 1.052z" stroke-width="1.296"/><path d="m72.384 118.733-.005.005c-.642.641-1.055 1.672-1.055 2.533 0 1.055.428 1.907 1.055 2.535.642.642 1.672 1.055 2.534 1.055a3.514 3.514 0 0 0 2.532-1.053l.002-.002 20.818-20.48 20.992 20.652.001.003c.642.64 1.671 1.052 2.533 1.052a3.512 3.512 0 0 0 2.534-1.055c.642-.64 1.054-1.671 1.054-2.533a3.511 3.511 0 0 0-1.054-2.534l-.002-.002-23.35-23.178h-.002c-.642-.642-1.672-1.054-2.533-1.054a3.512 3.512 0 0 0-2.531 1.052z" stroke-width="1.296"/><path d="M97.4 13.894c-46.025 0-83.506 37.481-83.506 83.506 0 46.024 37.481 83.506 83.506 83.506 46.024 0 83.506-37.482 83.506-83.506 0-46.025-37.482-83.506-83.506-83.506zM173.728 97.4c0 42.023-34.134 76.328-76.328 76.328-42.023 0-76.328-34.134-76.328-76.328S55.377 21.072 97.4 21.072c42.022 0 76.328 34.306 76.328 76.328z" stroke-width="1.296"/></g></svg>