<svg width="64" height="64" viewBox="0 0 64 64" xmlns="http://www.w3.org/2000/svg">
  <rect width="64" height="64" rx="14" fill="#0f3d3a"/>
  <path d="M16 36h32l-4 9a4 4 0 0 1-3.6 2.3H23.6A4 4 0 0 1 20 45z" fill="#2dd4bf"/>
  <path d="M30 14l11 3.5a1 1 0 0 1 .2 1.8L30 26z" fill="#5eead4"/>
  <rect x="29" y="14" width="2" height="20" rx="1" fill="#5eead4"/>
  <path d="M12 50c3-2.4 6-2.4 9 0s6 2.4 9 0 6-2.4 9 0 6 2.4 9 0" fill="none" stroke="#2dd4bf" stroke-width="2.4" stroke-linecap="round" opacity="0.6"/>
</svg>
